<?xml version='1.0' encoding='iso-8859-1'?>
<!DOCTYPE svg PUBLIC '-//W3C//DTD SVG 1.1//EN' 'http://www.w3.org/Graphics/SVG/1.1/DTD/svg11.dtd'>
<!-- Uploaded to: SVG Repo, www.svgrepo.com, Generator: SVG Repo Mixer Tools -->
<svg fill="#000000" height="800px" width="800px" version="1.1" xmlns="http://www.w3.org/2000/svg" viewBox="0 0 512 512" xmlns:xlink="http://www.w3.org/1999/xlink" enable-background="new 0 0 512 512">
  <g>
    <path d="M502.125,97.217c-6-2.484-12.859-1.125-17.438,3.469L384,201.373v-89.375c0-6.469-3.898-12.305-9.875-14.781   c-6-2.484-12.859-1.125-17.438,3.469L238.531,218.842l-14.57-203.984C223.359,6.484,216.391,0,208,0h-64   c-8.391,0-15.359,6.484-15.961,14.859L120,127.428l-8.039-112.57C111.359,6.484,104.391,0,96,0H32   c-8.391,0-15.359,6.484-15.961,14.859L0,239.998v256C0,504.834,7.164,512,16,512h80h128h272c8.836,0,16-7.166,16-16.002v-384   C512,105.53,508.102,99.694,502.125,97.217z M112,480V336h96v144H112z M480,480H240V319.998c0-8.836-7.164-15.998-16-15.998H96   c-8.836,0-16,7.163-16,15.998V480H32l-0.039-238.859L46.898,32h34.203l14.938,209.141C96.641,249.516,103.609,256,112,256h16   c8.391,0,15.359-6.484,15.961-14.859L158.898,32h34.203l14.938,209.141C208.641,249.516,215.609,256,224,256h16   c4.242,0,8.313-1.688,11.313-4.688L352,150.623v89.375c0,6.469,3.898,12.305,9.875,14.781c5.977,2.453,12.852,1.102,17.438-3.469   L480,150.623V480z"/>
    <path d="m448,320c0-8.837-7.163-16-16-16h-128c-8.837,0-16,7.163-16,16v96c0,8.837 7.163,16 16,16h128c8.837,0 16-7.163 16-16v-96zm-128,16h96v64h-96v-64z"/>
  </g>
</svg>