<?xml version="1.0" encoding="iso-8859-1"?>
<!-- Uploaded to: SVG Repo, www.svgrepo.com, Generator: SVG Repo Mixer Tools -->
<svg xmlns="http://www.w3.org/2000/svg" xmlns:xlink="http://www.w3.org/1999/xlink" version="1.1" id="Layer_1"  viewBox="0 0 277.509 277.509" xml:space="preserve" width="512" height="512">
<g>
	<path style="fill:#858EA4;" d="M15.214,99.957l57.895,45.638v-39.355c0-6.681,7.705-10.419,12.953-6.283l57.895,45.638v-39.355   c0-6.681,7.705-10.419,12.953-6.283l57.895,45.638v-0.157V30.221C214.805,13.53,228.336,0,245.026,0h0   c16.691,0,30.221,13.53,30.221,30.221v115.216v0.157v123.914c0,4.418-3.582,8-8,8H10.261c-4.418,0-8-3.582-8-8v-163.27   C2.261,99.558,9.967,95.82,15.214,99.957z"/>
	<path style="fill:#707789;" d="M137.255,140.311L86.062,99.957c-5.247-4.136-12.953-0.399-12.953,6.283v39.355L15.214,99.957   c-5.247-4.136-12.953-0.399-12.953,6.283v163.27c0,4.418,3.582,8,8,8h126.993V140.311z"/>
	<g>
		<path style="fill:#83CFE0;" d="M79.139,197.284H56.882c-8.284,0-15,6.716-15,15s6.716,15,15,15h22.256c8.284,0,15-6.716,15-15    S87.423,197.284,79.139,197.284z"/>
		<path style="fill:#C6E5E4;" d="M149.882,197.284h-22.256c-8.284,0-15,6.716-15,15s6.716,15,15,15h22.256c8.284,0,15-6.716,15-15    S158.167,197.284,149.882,197.284z"/>
		<path style="fill:#83CFE0;" d="M137.254,197.284h-9.627c-8.284,0-15,6.716-15,15s6.716,15,15,15h9.627V197.284z"/>
		<path style="fill:#C6E5E4;" d="M220.626,197.284h-22.256c-8.284,0-15,6.716-15,15s6.716,15,15,15h22.256c8.284,0,15-6.716,15-15    S228.911,197.284,220.626,197.284z"/>
	</g>
</g>















</svg>